<?xml version="1.0" encoding="UTF-8" standalone="no"?>
<!-- Created with Inkscape (http://www.inkscape.org/) -->

<svg
   xmlns:dc="http://purl.org/dc/elements/1.1/"
   xmlns:cc="http://creativecommons.org/ns#"
   xmlns:rdf="http://www.w3.org/1999/02/22-rdf-syntax-ns#"
   xmlns:svg="http://www.w3.org/2000/svg"
   xmlns="http://www.w3.org/2000/svg"
   xmlns:sodipodi="http://sodipodi.sourceforge.net/DTD/sodipodi-0.dtd"
   xmlns:inkscape="http://www.inkscape.org/namespaces/inkscape"
   width="117.92906mm"
   height="36.526566mm"
   viewBox="0 0 117.92906 36.526566"
   version="1.1"
   id="svg7760"
   inkscape:version="0.92.2 5c3e80d, 2017-08-06"
   sodipodi:docname="hcv_bdsky.svg">
  <defs
     id="defs7754">
    <clipPath
       clipPathUnits="userSpaceOnUse"
       id="clipPath6321">
      <path
         d="m 48.75,616.613 h 310.309 v 94.132 H 48.75 Z"
         id="path6319"
         inkscape:connector-curvature="0" />
    </clipPath>
  </defs>
  <sodipodi:namedview
     id="base"
     pagecolor="#ffffff"
     bordercolor="#666666"
     borderopacity="1.0"
     inkscape:pageopacity="0.0"
     inkscape:pageshadow="2"
     inkscape:zoom="1.979899"
     inkscape:cx="212.59972"
     inkscape:cy="22.000032"
     inkscape:document-units="mm"
     inkscape:current-layer="layer1"
     showgrid="false"
     inkscape:window-width="1440"
     inkscape:window-height="856"
     inkscape:window-x="0"
     inkscape:window-y="0"
     inkscape:window-maximized="1" />
  <metadata
     id="metadata7757">
    <rdf:RDF>
      <cc:Work
         rdf:about="">
        <dc:format>image/svg+xml</dc:format>
        <dc:type
           rdf:resource="http://purl.org/dc/dcmitype/StillImage" />
        <dc:title></dc:title>
      </cc:Work>
    </rdf:RDF>
  </metadata>
  <g
     inkscape:label="Layer 1"
     inkscape:groupmode="layer"
     id="layer1"
     transform="translate(-39.410387,-45.14743)">
    <g
       id="g7726"
       transform="matrix(0.35277777,0,0,-0.35277777,29.716909,296.33073)">
      <path
         inkscape:connector-curvature="0"
         id="path6293"
         style="fill:none;stroke:#231f20;stroke-width:0.352;stroke-linecap:round;stroke-linejoin:round;stroke-miterlimit:10;stroke-dasharray:none;stroke-opacity:1"
         d="m 74.136,616.613 h 282.1 m -282.1,0 v -2.232 m 47.017,2.232 v -2.232 m 47.017,2.232 v -2.232 m 47.015,2.232 v -2.232 m 47.017,2.232 v -2.232 m 47.017,2.232 v -2.232 m 47.017,2.232 v -2.232" />
      <text
         y="-608.57928"
         x="68.387901"
         id="text6297"
         style="font-variant:normal;font-weight:normal;font-size:5.16919994px;font-family:Helvetica;-inkscape-font-specification:Helvetica;writing-mode:lr-tb;fill:#231f20;fill-opacity:1;fill-rule:nonzero;stroke:none"
         transform="scale(1,-1)">
        <tspan
           id="tspan6295"
           sodipodi:role="line"
           y="-608.57928"
           x="68.387901 71.261978 74.136047 77.010124 115.4054 118.27946 121.15354 124.02762 162.42184 165.29593 168.17 171.04407 209.43779 212.31186 215.18594 218.06001 256.45529 259.32938 262.20343 265.07751 303.47122 306.34531 309.21939 312.09344 350.48718 353.36127 356.23532 359.10941">1700175018001850190019502000</tspan>
      </text>
      <path
         inkscape:connector-curvature="0"
         id="path6299"
         style="fill:none;stroke:#231f20;stroke-width:0.352;stroke-linecap:round;stroke-linejoin:round;stroke-miterlimit:10;stroke-dasharray:none;stroke-opacity:1"
         d="m 48.75,616.613 v 94.137 m 0,-94.137 h -2.237 m 2.237,23.535 h -2.237 m 2.237,23.534 h -2.237 m 2.237,23.534 h -2.237 m 2.237,23.534 h -2.237" />
      <text
         y="43.388"
         x="615.18231"
         id="text6303"
         style="font-variant:normal;font-weight:normal;font-size:5.16919994px;font-family:Helvetica;-inkscape-font-specification:Helvetica;writing-mode:lr-tb;fill:#231f20;fill-opacity:1;fill-rule:nonzero;stroke:none"
         transform="matrix(0,1,1,0,0,0)">
        <tspan
           id="tspan6301"
           y="43.388"
           x="615.18231">0</tspan>
      </text>
      <text
         y="43.386971"
         x="638.71039"
         id="text6307"
         style="font-variant:normal;font-weight:normal;font-size:5.16919994px;font-family:Helvetica;-inkscape-font-specification:Helvetica;writing-mode:lr-tb;fill:#231f20;fill-opacity:1;fill-rule:nonzero;stroke:none"
         transform="matrix(0,1,1,0,0,0)">
        <tspan
           id="tspan6305"
           y="43.386971"
           x="638.71039">1</tspan>
      </text>
      <text
         y="43.388519"
         x="662.24481"
         id="text6311"
         style="font-variant:normal;font-weight:normal;font-size:5.16919994px;font-family:Helvetica;-inkscape-font-specification:Helvetica;writing-mode:lr-tb;fill:#231f20;fill-opacity:1;fill-rule:nonzero;stroke:none"
         transform="matrix(0,1,1,0,0,0)">
        <tspan
           id="tspan6309"
           sodipodi:role="line"
           y="43.388519"
           x="662.24481 685.77863 709.31244">234</tspan>
      </text>
      <path
         inkscape:connector-curvature="0"
         id="path6313"
         style="fill:none;stroke:#231f20;stroke-width:0.352;stroke-linecap:round;stroke-linejoin:round;stroke-miterlimit:10;stroke-dasharray:none;stroke-opacity:1"
         d="m 55.329,616.613 h 300.907 m -300.907,0 v -0.446 m 9.404,0.446 v -0.446 m 9.403,0.446 v -0.446 m 9.403,0.446 v -0.446 m 9.403,0.446 v -0.446 m 9.404,0.446 v -0.446 m 9.403,0.446 v -0.446 m 9.404,0.446 v -0.446 m 9.403,0.446 v -0.446 m 9.404,0.446 v -0.446 m 9.403,0.446 v -0.446 m 9.403,0.446 v -0.446 m 9.404,0.446 v -0.446 m 9.403,0.446 v -0.446 m 9.402,0.446 v -0.446 m 9.404,0.446 v -0.446 m 9.403,0.446 v -0.446 m 9.403,0.446 v -0.446 m 9.403,0.446 v -0.446 m 9.404,0.446 v -0.446 m 9.404,0.446 v -0.446 m 9.402,0.446 v -0.446 m 9.404,0.446 v -0.446 m 9.404,0.446 v -0.446 m 9.402,0.446 v -0.446 m 9.404,0.446 v -0.446 m 9.404,0.446 v -0.446 m 9.403,0.446 v -0.446 m 9.403,0.446 v -0.446 m 9.404,0.446 v -0.446 m 9.402,0.446 v -0.446 m 9.405,0.446 v -0.446 m 9.403,0.446 v -0.446 M 48.75,616.613 v 94.137 m 0,-94.137 h -0.446 m 0.446,11.767 h -0.446 m 0.446,11.768 h -0.446 m 0.446,11.767 h -0.446 m 0.446,11.767 h -0.446 m 0.446,11.767 h -0.446 m 0.446,11.767 h -0.446 m 0.446,11.767 h -0.446 m 0.446,11.767 h -0.446" />
      <g
         id="g6317"
         clip-path="url(#clipPath6321)">
        <path
           d="m 48.75,679.25 h 10.029 l 10.028,-1.752 10.033,-4.69 10.028,-1.964 10.033,-3.159 10.028,1.035 10.029,-0.109 10.033,1.608 h 10.029 l 10.028,-0.16 10.033,0.16 10.028,-6.11 10.032,-0.276 10.029,-4.061 10.028,-4.732 10.033,-0.686 10.028,-3.14 10.034,-3.684 10.028,-2.871 10.028,-0.846 10.033,3.383 10.029,20.057 10.028,16.739 10.033,8.736 10.029,-6.95 10.033,-6.823 10.028,-33.591 10.028,-0.184 h 20.062 v -4.727 H 329.59 l -10.028,-0.258 -10.028,-0.353 -10.033,2.096 -10.029,0.212 -10.033,-17.755 -10.028,-3.815 -10.029,0.483 -10.033,0.311 -10.028,-1.683 -10.028,-1.611 h -10.034 l -10.028,-0.076 -10.033,0.085 -10.028,0.639 -10.029,0.813 -10.032,-1.847 -10.028,2.35 -10.033,0.066 -10.028,0.775 -10.029,-0.883 -10.033,-2.007 -10.029,0.052 -10.028,-0.498 -10.033,0.498 -10.028,0.827 -10.033,-0.494 -10.028,2.176 H 48.75 v 58.694"
           style="fill:#e8e8e9;fill-opacity:1;fill-rule:nonzero;stroke:none"
           id="path6323"
           inkscape:connector-curvature="0" />
        <path
           d="M 38.718,641.863 H 48.75 l 10.029,-0.019 10.028,-0.296 10.033,-0.244 10.028,-0.306 10.033,-0.831 10.028,-0.095 10.029,-0.019 10.033,-0.286 10.029,0.32 10.028,-0.137 10.033,-0.174 10.028,-0.314 10.032,-0.874 10.029,-1.894 10.028,-2.157 10.033,-1.02 10.028,-0.235 10.034,0.775 10.028,0.964 10.028,0.503 10.033,0.305 10.029,2.669 10.028,10.861 10.033,2.043 10.029,0.174 10.033,-4.995 10.028,-4.45 10.028,-0.033 h 20.062"
           style="fill:none;stroke:#231f20;stroke-width:0.352;stroke-linecap:round;stroke-linejoin:round;stroke-miterlimit:10;stroke-dasharray:none;stroke-opacity:1"
           id="path6325"
           inkscape:connector-curvature="0" />
        <path
           d="M 48.75,640.148 H 359.055"
           style="fill:none;stroke:#c3c5c7;stroke-width:0.352;stroke-linecap:round;stroke-linejoin:round;stroke-miterlimit:10;stroke-dasharray:none;stroke-opacity:1"
           id="path6327"
           inkscape:connector-curvature="0" />
      </g>
    </g>
    <text
       xml:space="preserve"
       style="font-style:normal;font-variant:normal;font-weight:normal;font-stretch:normal;font-size:3.52777767px;line-height:125%;font-family:sans-serif;-inkscape-font-specification:sans-serif;letter-spacing:0px;word-spacing:0px;fill:#000000;fill-opacity:1;stroke:none;stroke-width:0.26458332px;stroke-linecap:butt;stroke-linejoin:miter;stroke-opacity:1"
       x="-61.860794"
       y="41.982151"
       id="text7804"
       transform="rotate(-90)"><tspan
         sodipodi:role="line"
         id="tspan7802"
         x="-61.860794"
         y="41.982151"
         style="stroke-width:0.26458332px">R<tspan
   style="font-size:64.99999762%;baseline-shift:sub"
   id="tspan7806">e</tspan></tspan></text>
  </g>
</svg>
